<!-- Generator: Adobe Illustrator 19.2.1, SVG Export Plug-In . SVG Version: 6.00 Build 0)  -->
<svg version="1.1" id="Layer_1" xmlns="http://www.w3.org/2000/svg" xmlns:xlink="http://www.w3.org/1999/xlink" x="0px" y="0px" viewBox="0 0 80 80" style="enable-background:new 0 0 80 80;" xml:space="preserve">
<g>
	<path style="fill:#C2E8FF;" d="M8.505,77.5c0.267-12.729,10.704-23,23.495-23h16c12.791,0,23.229,10.271,23.495,23H8.505z"></path>
	<g>
		<path style="fill:#7496C4;" d="M48,55c12.347,0,22.453,9.78,22.979,22L9.022,77C9.547,64.78,19.653,55,32,55H48 M48,54H32
			C18.745,54,8,64.745,8,78v0h64v0C72,64.745,61.255,54,48,54L48,54z"></path>
	</g>
</g>
<g>
	<path style="fill:#C2E8FF;" d="M40,61.122l-9.702,6.101l-3.464-12.124C28.583,54.701,30.318,54.5,32,54.5h16
		c1.682,0,3.417,0.201,5.167,0.598l-3.465,12.124L40,61.122z"></path>
	<path style="fill:#7496C4;" d="M48,55c1.479,0,3.001,0.159,4.539,0.474l-3.134,10.97l-8.872-5.578L40,60.531l-0.532,0.335
		l-8.872,5.578l-3.134-10.97C28.999,55.159,30.521,55,32,55H48 M48,54H32c-2,0-3.933,0.272-5.791,0.733L30,68l10-6.287L50,68
		l3.791-13.267C51.933,54.271,50.001,54,48,54L48,54z"></path>
</g>
<g>
	<polygon style="fill:#DEB974;" points="30.5,54.899 30.5,44.5 49.5,44.5 49.5,54.899 40,63.332 	"></polygon>
	<g>
		<path style="fill:#967A44;" d="M49,45v9.674l-9,7.989l-9-7.989V45H49 M50,44H30v11.124L40,64l10-8.876V44L50,44z"></path>
	</g>
</g>
<polygon style="fill:#4E7AB5;" points="45.203,59.237 40,60.609 34.801,59.246 38,66 34,78 46,78 42,66 "></polygon>
<g>
	<g>
		<path style="fill:#DEB974;" d="M54.286,38.928c-2.875,0-5.215-2.339-5.215-5.214s2.34-5.214,5.215-5.214
			c3.703,0,5.214,0.959,5.214,3.31C59.5,34.621,57.164,38.928,54.286,38.928z M25.715,38.928c-2.879,0-5.215-4.308-5.215-7.119
			c0-2.351,1.511-3.31,5.215-3.31c2.875,0,5.214,2.339,5.214,5.214S28.59,38.928,25.715,38.928z"></path>
	</g>
	<g>
		<path style="fill:#967A44;" d="M54.286,29C58.212,29,59,30.075,59,31.809c0,2.829-2.331,6.619-4.714,6.619
			c-2.599,0-4.714-2.115-4.714-4.714S51.686,29,54.286,29 M25.714,29c2.599,0,4.714,2.115,4.714,4.714s-2.115,4.714-4.714,4.714
			c-2.384,0-4.714-3.79-4.714-6.619C21,30.075,21.789,29,25.714,29 M54.286,28c-3.156,0-5.714,2.558-5.714,5.714
			c0,3.156,2.558,5.714,5.714,5.714c3.156,0,5.714-4.463,5.714-7.619C60,28.653,57.442,28,54.286,28L54.286,28z M25.714,28
			C22.559,28,20,28.653,20,31.809c0,3.156,2.558,7.619,5.714,7.619s5.714-2.558,5.714-5.714C31.429,30.558,28.87,28,25.714,28
			L25.714,28z"></path>
	</g>
</g>
<g>
	<g>
		<path style="fill:#F5CE85;" d="M40,53.5c-1.343,0-2.638-0.495-3.648-1.393l-0.091-0.081l-0.117-0.03
			C29.288,50.237,24.5,44.07,24.5,37V18.403c0-3.929,3.196-7.125,7.125-7.125h16.75c3.929,0,7.125,3.196,7.125,7.125V37
			c0,7.07-4.788,13.237-11.643,14.996l-0.118,0.03l-0.09,0.081C42.639,53.005,41.343,53.5,40,53.5z"></path>
	</g>
	<g>
		<path style="fill:#967A44;" d="M48.375,11.778c3.653,0,6.625,2.972,6.625,6.625V37c0,6.842-4.633,12.81-11.268,14.512l-0.235,0.06
			l-0.181,0.161C42.398,52.55,41.22,53,40,53c-1.22,0-2.398-0.45-3.317-1.267l-0.181-0.161l-0.235-0.06
			C29.634,49.81,25,43.842,25,37V18.403c0-3.653,2.972-6.625,6.625-6.625H48.375 M48.375,10.778H31.625
			c-4.211,0-7.625,3.414-7.625,7.625V37c0,7.46,5.112,13.708,12.019,15.48C37.079,53.423,38.471,54,40,54s2.921-0.577,3.981-1.52
			C50.888,50.708,56,44.459,56,37V18.403C56,14.192,52.586,10.778,48.375,10.778L48.375,10.778z"></path>
	</g>
</g>
<g>
	<path style="fill:#A6714E;" d="M55.5,35.5V28c0-7.02-6.829-10.764-7.12-10.92l-0.351-0.188l-0.263,0.3
		c-0.053,0.061-5.36,6.021-14.467,6.021c-3.777,0-8.8,0.704-8.8,6.787v5.5h-0.181c-0.686-1.507-3.819-8.734-3.819-14.877
		C20.5,9.783,27.935,2.5,39,2.5c8.037,0,10.44,5.461,10.539,5.694l0.129,0.305L50,8.5c3.528,0,9.5,2.428,9.5,11.53
		c0,5.62-3.162,13.793-3.836,15.47H55.5z"></path>
	<g>
		<path style="fill:#7A4F34;" d="M39,3c7.678,0,9.985,5.17,10.077,5.385L49.334,9H50c0.921,0,9,0.31,9,11.03
			c0,4.238-1.84,9.983-3,13.181V28c0-7.316-7.083-11.199-7.384-11.361l-0.702-0.374l-0.524,0.598
			c-0.051,0.059-5.229,5.851-14.09,5.851c-2.3,0-9.3,0-9.3,7.286v3.475c-1.152-2.865-3-8.188-3-12.852C21,10.082,28.234,3,39,3
			 M39,2C27.362,2,20,9.962,20,20.622C20,27.684,24,36,24,36h1c0,0,0-4.057,0-6c0-5.336,4.048-6.286,8.3-6.286
			c9.46,0,14.843-6.193,14.843-6.193S55,21.198,55,28c0,2.137,0,8,0,8h1c0,0,4-9.535,4-15.97C60,10.995,54.247,8,50,8
			C50,8,47.494,2,39,2L39,2z"></path>
	</g>
</g>
</svg>